<?xml version="1.0" standalone="no"?>
<!DOCTYPE svg PUBLIC "-//W3C//DTD SVG 20010904//EN"
 "http://www.w3.org/TR/2001/REC-SVG-20010904/DTD/svg10.dtd">
<svg version="1.0" xmlns="http://www.w3.org/2000/svg"
 width="1536.000000pt" height="770.000000pt" viewBox="0 0 1536.000000 770.000000"
 preserveAspectRatio="xMidYMid meet">

<g transform="translate(0.000000,770.000000) scale(0.100000,-0.100000)"
fill="#000000" stroke="none">
<path d="M7700 6575 c-8 -2 -49 -9 -90 -15 -190 -31 -450 -140 -641 -268 -171
-116 -702 -572 -859 -738 -108 -114 -247 -310 -314 -441 -9 -18 -32 -83 -52
-144 -20 -62 -47 -135 -59 -162 -29 -61 -22 -92 21 -92 27 0 33 8 79 102 28
56 59 112 70 124 11 12 70 61 130 110 61 48 147 126 193 173 45 47 128 125
185 173 56 48 161 140 232 204 351 316 556 468 755 562 212 100 333 129 540
131 129 1 151 -2 201 -22 31 -12 66 -33 79 -47 21 -22 24 -34 22 -100 -1 -41
-9 -103 -18 -137 -19 -74 -98 -256 -146 -334 -136 -225 -477 -593 -773 -834
-196 -159 -554 -483 -652 -588 -91 -99 -134 -153 -205 -261 -22 -32 -23 -84
-2 -105 23 -23 58 -20 127 13 34 16 91 43 127 59 36 16 109 59 164 95 l99 66
21 -27 c106 -137 238 -228 387 -268 35 -10 68 -21 72 -24 5 -4 -5 -34 -21 -66
-69 -138 -102 -315 -83 -454 21 -158 120 -308 245 -373 57 -30 67 -32 166 -31
123 0 168 15 301 95 140 85 347 271 444 398 30 39 42 48 52 39 7 -6 16 -8 20
-5 3 4 18 -11 33 -31 89 -123 265 -188 438 -163 123 18 207 65 323 180 107
107 157 176 223 308 71 143 117 278 152 451 3 15 18 28 45 39 44 17 75 67 64
102 -6 21 -46 41 -80 41 -24 0 -28 6 -40 69 -20 99 -91 191 -146 191 -46 -1
-61 -14 -98 -87 -35 -70 -37 -85 -16 -103 24 -20 51 -2 75 50 13 28 26 48 28
45 3 -2 -1 -38 -8 -80 -12 -70 -15 -75 -38 -75 -47 0 -277 -51 -364 -81 -287
-98 -467 -229 -551 -402 -37 -77 -67 -167 -67 -202 0 -15 -13 -31 -37 -48 -21
-13 -87 -70 -147 -126 -196 -182 -507 -361 -627 -361 -68 0 -109 65 -109 170
1 148 38 268 136 444 l57 104 81 31 c179 68 334 180 468 340 190 225 247 355
199 454 -41 85 -128 95 -261 31 -203 -99 -435 -299 -608 -525 l-81 -106 -78
-7 c-91 -8 -199 5 -275 34 -48 18 -161 80 -180 99 -5 4 94 88 219 186 124 99
270 215 323 258 54 42 152 131 218 196 367 365 588 709 666 1037 55 234 21
452 -90 559 -72 70 -248 145 -389 165 -64 9 -238 12 -275 5z m1710 -2556 c-43
-115 -132 -286 -189 -360 -63 -83 -156 -171 -210 -198 -88 -45 -236 -37 -288
15 -22 22 -25 32 -21 75 11 114 129 274 259 350 103 60 421 194 471 198 4 1
-6 -36 -22 -80z"/>
<path d="M6488 5490 c-9 -6 -22 -27 -28 -48 -32 -100 -139 -301 -378 -712
-316 -544 -436 -732 -722 -1135 -116 -164 -263 -398 -298 -474 -13 -29 -32
-83 -42 -120 -46 -174 -63 -226 -85 -269 -35 -70 -37 -105 -4 -122 30 -17 64
-5 86 31 11 17 76 87 145 157 315 320 787 955 968 1305 210 404 435 930 482
1126 18 76 19 94 8 153 -15 83 -39 118 -83 118 -18 0 -40 -5 -49 -10z"/>
<path d="M10630 5384 c-223 -39 -482 -349 -648 -779 -144 -371 -202 -642 -247
-1160 -9 -99 -24 -274 -35 -390 -10 -115 -24 -273 -30 -350 -26 -338 -41 -512
-46 -543 l-5 -32 -97 73 c-193 146 -319 215 -497 271 -84 27 -123 47 -240 125
-173 115 -314 199 -375 222 -166 63 -301 36 -365 -72 -16 -28 -20 -52 -20
-134 0 -55 3 -120 7 -145 l7 -45 -162 -59 c-278 -102 -387 -153 -649 -302
-295 -170 -336 -191 -648 -336 -396 -185 -517 -225 -770 -258 -148 -19 -513
-9 -670 20 -403 72 -768 232 -1155 508 -260 185 -743 562 -975 762 -225 194
-326 271 -363 277 -69 11 -137 -50 -137 -122 0 -35 9 -53 56 -116 31 -41 93
-128 137 -194 122 -183 158 -226 284 -337 65 -57 160 -143 213 -192 91 -86
347 -295 515 -422 423 -321 907 -552 1339 -639 196 -40 308 -48 566 -42 283 7
415 26 640 93 217 65 628 271 1200 599 224 129 510 277 621 322 l75 30 44
-131 c115 -353 324 -756 498 -967 137 -165 337 -314 481 -360 44 -14 95 -21
151 -21 319 -3 498 255 636 917 20 94 38 194 40 223 2 29 8 79 14 110 19 110
80 569 100 752 31 296 58 631 80 980 34 553 63 742 154 1022 96 293 270 565
372 582 72 12 202 -50 272 -130 59 -66 77 -126 77 -261 0 -98 -3 -115 -21
-140 -39 -52 -88 -76 -231 -113 -50 -13 -65 -42 -36 -71 17 -18 25 -18 74 -8
79 16 211 82 247 123 43 50 55 101 56 251 1 162 -19 236 -93 342 -57 81 -193
203 -266 237 -51 24 -129 37 -175 30z m-1780 -3254 c23 -6 108 -73 240 -186
170 -146 272 -227 462 -367 16 -11 16 -19 -2 -119 -40 -228 -116 -455 -172
-515 -29 -31 -66 -29 -136 6 -203 103 -378 304 -535 618 -93 185 -236 538
-223 551 21 20 304 30 366 12z"/>
</g>
</svg>
